<svg width="34" height="24" viewBox="0 0 34 24" fill="none" xmlns="http://www.w3.org/2000/svg">
<path d="M23.6775 19.176C25.8397 17.1569 27.1225 14.7684 27.429 12.147C27.9276 7.87715 25.4474 5.29261 22.9322 4.69831C20.4319 4.10526 17.2495 5.24152 15.7738 9.1047C14.5072 12.4188 14.8833 15.9034 16.7035 18.7116C13.9766 19.8591 10.9828 20.141 8.61873 19.4014C6.74342 18.8146 5.4474 17.6725 4.76609 16.0077C3.77956 13.597 4.42885 11.3789 5.1473 9.94318C6.53169 7.17646 9.35681 4.90981 12.5205 4.02946L11.3551 0C6.99784 1.2129 3.24424 4.24012 1.31472 8.09828C-0.241275 11.208 -0.422274 14.5711 0.804594 17.5686C1.94993 20.3667 4.26407 22.4345 7.32142 23.391C8.62855 23.8006 10.0381 24 11.4895 24C14.2626 24 17.1867 23.27 19.8287 21.8804C23.4944 24.3635 28.5018 24.6647 33.3913 22.6535L32.2174 18.5918C28.3925 20.3228 25.5289 19.932 23.6775 19.176ZM23.1875 11.67C22.9471 13.7293 21.6985 15.3309 20.3333 16.4952C19.2153 14.7738 18.9873 12.6253 19.7707 10.5748C20.2095 9.42594 20.931 8.73782 21.6626 8.73782C21.7527 8.73782 21.8428 8.74829 21.9324 8.76965C22.6795 8.94597 23.3911 9.92936 23.1875 11.67Z" fill="black"/>
</svg>
