<svg width="24" height="24" viewBox="0 0 24 24" fill="none" xmlns="http://www.w3.org/2000/svg">
<circle cx="12" cy="12" r="7.25" stroke="#12121F" stroke-width="1.5"/>
<path d="M15 13C15 14.6569 13.6569 15.5 12 15.5C10.3431 15.5 9 14.6569 9 13" stroke="#12121F" stroke-width="1.5"/>
<path d="M10.5 10C10.5 10.5523 10.0523 11 9.5 11C8.94772 11 8.5 10.5523 8.5 10C8.5 9.44772 8.94772 9 9.5 9C10.0523 9 10.5 9.44772 10.5 10Z" fill="#12121F"/>
<path d="M15.5 10C15.5 10.5523 15.0523 11 14.5 11C13.9477 11 13.5 10.5523 13.5 10C13.5 9.44772 13.9477 9 14.5 9C15.0523 9 15.5 9.44772 15.5 10Z" fill="#12121F"/>
</svg>
